<?xml version="1.0" encoding="UTF-8"?>
<svg id="Layer_1" data-name="Layer 1" xmlns="http://www.w3.org/2000/svg" viewBox="0 0 100.48 130.96">
  <defs>
    <style>
      .cls-1 {
        fill: #231f20;
      }
    </style>
  </defs>
  <path class="cls-1" d="M1.59,0l45.65,59.17,1.62-1.25L5.75,2.05h17.93l38.35,49.69L0,130.96l100.19-.07v-30.27h-1.47l-13.07,13.07-8.19-.17v2.05c.42-.11,9.48.27,9.44-.23.33-.34,11.44-11.45,11.76-11.77l-.49,25.33H4.23l10.39-13.27h57.39v-2.05H16.22l48.5-61.97L26.27,2.05h50.09l22.01,22.01.06-.06v.06h2.05V0M98.43,21.22L79.27,2.05h19.17v19.17Z"/>
  <path class="cls-1" d="M70.4,40.77h-3.82s-.04.01-.04.02v43.03s.02.02.04.02h3.82s.04-.01.04-.02v-43.03s-.02-.02-.04-.02Z"/>
  <polygon class="cls-1" points="96.27 40.85 96.27 81.03 76.9 40.9 76.9 40.85 76.87 40.85 76.87 40.84 76.87 40.85 72.92 40.85 72.92 83.78 76.9 83.78 76.9 43.39 96.16 83.78 96.27 83.74 96.27 83.78 100.25 83.78 100.25 40.85 96.27 40.85"/>
</svg>